<?xml version="1.0" encoding="utf-8"?>
<!-- Generator: Adobe Illustrator 15.0.0, SVG Export Plug-In . SVG Version: 6.00 Build 0)  -->
<!DOCTYPE svg PUBLIC "-//W3C//DTD SVG 1.1//EN" "http://www.w3.org/Graphics/SVG/1.1/DTD/svg11.dtd">
<svg version="1.1" id="Layer_1" xmlns="http://www.w3.org/2000/svg" xmlns:xlink="http://www.w3.org/1999/xlink" x="0px" y="0px"
	 width="165px" height="215px" viewBox="0 0 165 215" enable-background="new 0 0 165 215" xml:space="preserve">
<g>
	<g>
		<path fill="#FFF100" d="M60.17,95.478c-3.067,0.255-5.877-0.612-8.473,1.561c-1.997,1.673-3.082,2.944-4.281,5.183
			c-1.801,3.379-2.349,8.821-1.079,12.516c4.876,14.186,24.569,13.961,29.902,0.525c2.626-6.628,0.513-13.424-4.981-17.407
			C67.668,95.253,64.95,95.079,60.17,95.478z"/>
		<path fill="#00ADEE" d="M86.463,75.265c-1.047,2.862-5.931,17.998-8.1,25.988c-3.884,14.311-6.337,22.589-6.117,26.92
			c0.002,0.044,0.004,0.09,0.003,0.134c-0.003,0.09,0.204,0.22,0.282,0.218c0.043-0.002,0.087-0.002,0.133-0.002
			c2.914-0.004,5.085-0.233,6.123,0.874c0.791,0.844,0.865,6.081,0.93,7.26c0.408,7.36,0.894,15.906,1.32,26.424
			c0.215,5.319,0.215,5.604,5.891,5.606c2.218,0,4.473,0.068,6.669-0.044c0.799-12.049,0.079-39.179-0.444-51.257
			c-1.387-31.967-3.94-38.339-6-42.451C87.052,74.729,86.463,75.265,86.463,75.265z"/>
		<path fill="#EB1C24" d="M112.144,116.38c-12.725,0.153-16.863-4.445-23.789,2.422c-7.479,7.418-8.303,24.532,0.202,31.558
			c5.564,4.597,14.128,5.299,21.472,3.38c6.256-1.636,10.155-6.177,12.272-11.171c2.263-5.337,2.416-11.316,1.031-16.528
			C120.687,116.084,114.489,116.357,112.144,116.38z"/>
		<path d="M79.89,138.005c5.534,4.152,14.112,3.374,20.206,1.144c4.274-1.563,8.473-3.952,12.185-6.564
			c0.864-0.606,2.165-1.947,3.473-3.82c0.086-0.122,0.301,0.268,0.425,0.447c0.02,0.027,0.002,0.067,0.002,0.067
			c-3.313,9.485-13.753,14.985-22.641,18.16c-7.592,2.713-17.307,3.858-25.397,2.211c-4.572-0.935-8.525-2.303-12.5-4.643
			c-2.32-1.363-6.754-4.521-8.748-6.098c-0.156-0.124,0.244-0.373,0.385-0.317c5.666,2.295,11.788,2.949,18.199,2.933
			c4.826-0.014,10.598,0.244,14.157-3.421L79.89,138.005z"/>
		<path d="M117.267,105.149c-1.469-1.597-3.182-2.894-5.105-3.899c-2.018-1.061-3.806-1.173-6.027-1.106
			c-5.547,0.173-11.227,1.608-15.95,4.544c-1.739,1.082-3.446,2.232-4.889,3.695c-0.306,0.312-0.836,0.752-1.066,1.189
			c-0.037,0.068,0.094,0.258,0.186,0.283c2.404,0.65,5.292,1.06,7.882,1.521c4.457,0.792,9.154,0.073,13.63-0.281
			c2.661-0.212,5.663-0.409,8.121-1.522c1.177-0.533,4.337-2.428,4.402-2.718C118.546,106.434,117.674,105.598,117.267,105.149z"/>
		<path fill="#FFFFFF" d="M105.757,108.889c-1.037,0.564-2.687,0.596-3.831,0.254c-2.893-0.861-2.585-4.492-2.585-4.492
			c-0.018-0.569,0.058-1.252,0.313-1.76c0.774-1.556,2.898-1.483,4.431-1.3c2.089,0.243,3.296,1.636,3.291,3.721
			C107.373,106.71,107.086,108.16,105.757,108.889z"/>
	</g>
	<g>
		<g>
			<g>
				<path d="M47.32,12.593V3.64h3.923v8.513c0,1.47,0.835,2.302,2.382,2.302c1.544,0,2.379-0.832,2.379-2.302V3.64h3.923v8.953
					c0,3.337-2.28,5.397-6.302,5.397C49.601,17.99,47.32,15.93,47.32,12.593z"/>
				<path d="M73.59,17.573v-3.238l-4.662-4.684v7.922h-3.899V3.64h2.65L73.59,9.55V3.64h3.9v13.933H73.59z"/>
				<path d="M81.317,10.608c0-4.05,3.187-7.36,7.848-7.36c1.838,0,3.386,0.392,4.659,1.079v3.334
					c-1.153-0.61-2.624-0.978-3.973-0.978c-2.651,0-4.466,1.765-4.466,3.948c0,2.157,1.814,3.926,4.466,3.926
					c1.349,0,2.819-0.37,3.973-0.982v3.336c-1.273,0.662-2.821,1.051-4.659,1.051C84.504,17.962,81.317,14.677,81.317,10.608z"/>
				<path d="M98.632,17.573V3.64h3.9v10.62h6.501v3.313H98.632z"/>
				<path d="M113.057,17.573V3.64h9.196v3.287h-5.298v2.157h3.947v2.922h-3.947v2.282h5.595v3.285H113.057z"/>
			</g>
		</g>
		<g>
			<g>
				<path d="M29.519,37.173V64.79H19.356V37.173h-11.7V28.48h33.56v8.693H29.519z"/>
				<path d="M43.261,46.634c0-10.545,8.76-19.174,20.521-19.174c11.76,0,20.519,8.629,20.519,19.174
					c0,10.547-8.759,19.176-20.519,19.176C52.021,65.81,43.261,57.182,43.261,46.634z M53.746,46.634
					c0,5.625,4.284,10.226,10.037,10.226c5.752,0,10.034-4.601,10.034-10.226c0-5.623-4.281-10.229-10.034-10.229
					C58.029,36.405,53.746,41.011,53.746,46.634z"/>
				<path d="M112.084,64.79v-8.44L99.94,44.143V64.79H89.777V28.48h6.903l15.403,15.406V28.48h10.165V64.79H112.084z"/>
				<path d="M149.745,64.79h-10.099V50.852L127.182,28.48h11.441l6.073,12.274l6.073-12.274h11.44l-12.465,22.372V64.79z"/>
			</g>
		</g>
	</g>
</g>
<g>
	<path d="M3,212.243l1.167-9.455h0.997l-1.165,9.455H3z"/>
	<path d="M15.866,203.654h-3.145l-1.067,8.589h-0.997l1.066-8.589H8.561l0.099-0.866h7.307L15.866,203.654z"/>
	<path d="M18.779,206.282l0.035-0.264c0.449-0.166,1.032-0.581,1.131-1.415c0.1-0.782-0.449-1.282-0.732-1.598l0.933-0.832
		l0.185,0.182c0.199,0.201,0.697,0.766,0.58,1.697C20.777,205.168,19.863,206.101,18.779,206.282z"/>
	<path d="M29.5,204.02c-0.216-0.132-1-0.615-1.931-0.615c-0.916,0-1.68,0.516-1.814,1.433c-0.1,0.882,0.601,1.347,1.115,1.764
		l1.166,0.933c0.681,0.55,1.465,1.215,1.314,2.547c-0.181,1.396-1.479,2.431-3.18,2.431c-1.231,0-2.179-0.633-2.347-0.732
		l0.135-0.966c0.199,0.132,1.164,0.816,2.279,0.816c1.217,0,1.983-0.685,2.082-1.549c0.1-0.733-0.217-1.165-0.95-1.766l-1.23-0.981
		c-0.566-0.465-1.533-1.165-1.382-2.496c0.201-1.598,1.649-2.314,2.896-2.314c0.999,0,1.781,0.465,1.965,0.565L29.5,204.02z"/>
	<path d="M44.815,202.788l-3.53,5.411l-0.5,4.044h-0.999l0.5-4.026l-2.23-5.429h1.099l1.713,4.627l2.847-4.627H44.815z"/>
	<path d="M51.855,202.489c2.249,0,4.062,1.598,4.062,4.361c0,3.51-2.83,5.692-5.261,5.692c-2.979,0-4.262-2.247-4.262-4.312
		C46.395,205.137,48.725,202.489,51.855,202.489z M50.656,211.645c2.348,0,4.229-2.23,4.229-4.828c0-2.047-1.332-3.447-3.197-3.447
		c-2.114,0-4.245,2.017-4.245,4.796C47.444,210.41,48.859,211.645,50.656,211.645z"/>
	<path d="M59.512,209.031l0.784-6.243h0.999l-0.783,6.243c-0.186,1.448,0.647,2.498,2.148,2.498c1.497,0,2.595-1.05,2.778-2.498
		l0.782-6.243h1l-0.784,6.243c-0.249,1.979-1.795,3.38-3.876,3.38C60.48,212.411,59.263,211.011,59.512,209.031z"/>
	<path d="M76.375,205.52c-0.135,1.396-1.231,2.328-2.48,2.63l1.514,2.879c0.202,0.383,0.433,0.601,0.718,0.601
		c0.397,0,0.596-0.252,0.68-0.317l0.301,0.367c-0.05,0.082-0.516,0.732-1.216,0.732c-0.683,0-1.1-0.384-1.465-1.1l-1.564-3.045
		h-0.981l-0.482,3.977H70.4l1.164-9.455h1.965C75.343,202.788,76.574,203.687,76.375,205.52z M73.312,203.654h-0.849l-0.484,3.828
		h0.799c1.199,0.032,2.497-0.648,2.597-1.982C75.525,204.271,74.827,203.654,73.312,203.654z"/>
	<path d="M90.374,204.02c-0.216-0.132-0.999-0.615-1.931-0.615c-0.918,0-1.682,0.516-1.814,1.433c-0.1,0.882,0.6,1.347,1.115,1.764
		l1.164,0.933c0.684,0.55,1.466,1.215,1.316,2.547c-0.184,1.396-1.482,2.431-3.179,2.431c-1.233,0-2.181-0.633-2.349-0.732
		l0.133-0.966c0.199,0.132,1.167,0.816,2.28,0.816c1.216,0,1.982-0.685,2.081-1.549c0.1-0.733-0.215-1.165-0.948-1.766l-1.233-0.981
		c-0.564-0.465-1.529-1.165-1.38-2.496c0.199-1.598,1.647-2.314,2.896-2.314c0.999,0,1.781,0.465,1.965,0.565L90.374,204.02z"/>
	<path d="M93.854,212.243l1.163-9.455h1l-0.533,4.246h4.944l0.515-4.246h1l-1.165,9.455h-0.999l0.531-4.344h-4.926l-0.532,4.344
		H93.854z"/>
	<path d="M109.866,208.83h-3.063l-1.514,3.413h-1.082l4.345-9.455h0.999l2.03,9.455h-1.031L109.866,208.83z M107.17,208.031h2.53
		l-0.552-2.763l-0.213-1.231l-0.533,1.231L107.17,208.031z"/>
	<path d="M117.157,212.243h-0.884l-2.031-9.455h0.998l1.434,6.974l0.182,1.065l0.466-1.065l3.112-6.974h1.067L117.157,212.243z"/>
	<path d="M123.831,212.243l1.167-9.455h0.998l-1.165,9.455H123.831z"/>
	<path d="M134.868,202.489c2.247,0,4.063,1.598,4.063,4.361c0,3.51-2.832,5.692-5.262,5.692c-2.979,0-4.26-2.247-4.26-4.312
		C129.409,205.137,131.738,202.489,134.868,202.489z M133.669,211.645c2.349,0,4.228-2.23,4.228-4.828
		c0-2.047-1.332-3.447-3.195-3.447c-2.113,0-4.244,2.017-4.244,4.796C130.457,210.41,131.869,211.645,133.669,211.645z"/>
	<path d="M142.526,209.031l0.782-6.243h0.997l-0.784,6.243c-0.182,1.448,0.652,2.498,2.148,2.498c1.499,0,2.597-1.05,2.781-2.498
		l0.783-6.243h0.997l-0.782,6.243c-0.25,1.979-1.797,3.38-3.879,3.38C143.489,212.411,142.274,211.011,142.526,209.031z"/>
	<path d="M159.385,205.52c-0.131,1.396-1.229,2.328-2.479,2.63l1.517,2.879c0.198,0.383,0.433,0.601,0.714,0.601
		c0.4,0,0.601-0.252,0.684-0.317l0.3,0.367c-0.05,0.082-0.517,0.732-1.214,0.732c-0.682,0-1.099-0.384-1.464-1.1l-1.566-3.045
		h-0.982l-0.483,3.977h-0.999l1.166-9.455h1.966C158.354,202.788,159.584,203.687,159.385,205.52z M156.324,203.654h-0.849
		l-0.483,3.828h0.8c1.197,0.032,2.495-0.648,2.598-1.982C158.539,204.271,157.838,203.654,156.324,203.654z"/>
</g>
</svg>
